<svg width="39" height="40" viewBox="0 0 39 40" fill="none" xmlns="http://www.w3.org/2000/svg">
<path d="M33.7325 0.961761H5.18962C2.32347 0.961761 0 3.2615 0 6.09837V34.3497C0 37.1866 2.32347 39.4864 5.18962 39.4864H33.7325C36.5987 39.4864 38.9222 37.1866 38.9222 34.3497V6.09837C38.9222 3.2615 36.5987 0.961761 33.7325 0.961761Z" fill="#0410F1"/>
<path d="M12.4551 27.6721V19.0172C12.4551 18.7426 12.4727 18.4681 12.5377 18.2013C13.0322 16.1713 14.9902 12.7759 19.686 12.7759C24.7095 12.7759 26.4728 16.6619 26.7265 18.6049V24.2075C26.7265 25.5078 25.6616 26.5618 24.348 26.5618C23.0343 26.5618 21.9694 25.5078 21.9694 24.2075V19.8077C21.9694 19.0059 21.5127 17.4021 19.686 17.4021C17.4025 17.4021 17.2122 19.0675 17.2122 19.8077C17.2122 20.3997 17.2122 25.2975 17.2122 27.6721" stroke="white" stroke-width="3"/>
</svg>
